<svg xmlns="http://www.w3.org/2000/svg" width="420" height="132" viewBox="0 0 420 132" role="img" aria-label="9Bar FleetControl">
  <rect width="420" height="132" rx="18" fill="#ffffff"/>
  <rect x="14" y="14" width="104" height="104" rx="16" fill="#123c69"/>
  <path d="M43 82h47l8-18H70l7-14H48L34 82h9Z" fill="#f28c00"/>
  <circle cx="46" cy="91" r="8" fill="#ffffff"/>
  <circle cx="89" cy="91" r="8" fill="#ffffff"/>
  <path d="M46 36h46l14 17H58l-12-17Z" fill="#ffffff"/>
  <path d="M145 42h48c16 0 25 8 25 21 0 8-4 14-11 18 9 3 14 10 14 20 0 16-12 25-31 25h-45V42Zm43 33c8 0 13-4 13-11s-5-10-13-10h-25v21h25Zm2 39c9 0 14-5 14-13 0-7-5-12-14-12h-27v25h27Z" fill="#111827"/>
  <path d="M230 42h21l38 84h-21l-8-18h-39l-8 18h-21l38-84Zm24 51-13-31-14 31h27Z" fill="#111827"/>
  <path d="M294 42h43c21 0 34 12 34 31 0 13-7 24-19 29l23 24h-25l-20-21h-17v21h-19V42Zm41 47c11 0 18-6 18-16s-7-15-18-15h-22v31h22Z" fill="#111827"/>
  <path d="M144 21h115" stroke="#f28c00" stroke-width="8" stroke-linecap="round"/>
  <text x="145" y="126" fill="#5f6f84" font-family="Arial, Helvetica, sans-serif" font-size="18" font-weight="800" letter-spacing="1.5">FLEETCONTROL ADMIN</text>
</svg>
